# xmcd
#
# Track frame offsets: 
#        150
#        11838
#        23358
#        34622
#        46839
#        59645
#        71272
#        82453
#        94348
#        104675
#        115506
#        127614
#        139230
#        150449
#        161520
#        172186
#        183547
#        195661
#        206027
#        220416
#        233961
#        246624
#        264385
#        276949
#
# Disc length: 3820 seconds
#
# Revision: 0
# Processed by: cddbd v1.5.2PL0 Copyright (c) Steve Scherf et al.
# Submitted via: ExactAudioCopyFreeDBPlugin 1.0
#
DISCID=5f0eea18
DTITLE=Lloyd Glenn - 1954-1957
DYEAR=1900
DGENRE=Blues
TTITLE0=Shadow Land
TTITLE1=Chocolate drop
TTITLE2=Wild fire
TTITLE3=Tipsy
TTITLE4=Still waters
TTITLE5=Nite-flite
TTITLE6=Glenn's glide
TTITLE7=Footloose
TTITLE8=Rompin' Rhumba
TTITLE9=Tiddly-winks
TTITLE10=Strollin'
TTITLE11=Sunrise
TTITLE12=Ballroom shuffle
TTITLE13=The vamp
TTITLE14=Southbound special
TTITLE15=Blue ivories
TTITLE16=Old time shuffle
TTITLE17=Chick-a-boo
TTITLE18=After hours - part 1
TTITLE19=After hours - part 2
TTITLE20=Hyde park (fickle fingers)
TTITLE21=Love for sale
TTITLE22=Black fantasy
TTITLE23=Cute-Tee
EXTD=
EXTT0=
EXTT1=
EXTT2=
EXTT3=
EXTT4=
EXTT5=
EXTT6=
EXTT7=
EXTT8=
EXTT9=
EXTT10=
EXTT11=
EXTT12=
EXTT13=
EXTT14=
EXTT15=
EXTT16=
EXTT17=
EXTT18=
EXTT19=
EXTT20=
EXTT21=
EXTT22=
EXTT23=
PLAYORDER=
